<?xml version="1.0" encoding="UTF-8" standalone="no"?>
<!DOCTYPE svg PUBLIC "-//W3C//DTD SVG 1.1//EN" "http://www.w3.org/Graphics/SVG/1.1/DTD/svg11.dtd">
<svg width="100%" height="100%" viewBox="0 0 1080 1080" version="1.1" xmlns="http://www.w3.org/2000/svg" xmlns:xlink="http://www.w3.org/1999/xlink" xml:space="preserve" xmlns:serif="http://www.serif.com/" style="fill-rule:evenodd;clip-rule:evenodd;stroke-linejoin:round;stroke-miterlimit:2;">
    <g id="Prancheta1">
        <path d="M1080,270C1080,120.983 959.017,0 810,0L270,0C120.983,0 0,120.983 0,270L0,810C0,959.017 120.983,1080 270,1080L810,1080C959.017,1080 1080,959.017 1080,810L1080,270ZM905.791,357.104C905.791,256.161 823.839,174.209 722.896,174.209L357.104,174.209C256.161,174.209 174.209,256.161 174.209,357.104L174.209,722.896C174.209,823.839 256.161,905.791 357.104,905.791L722.896,905.791C823.839,905.791 905.791,823.839 905.791,722.896L905.791,357.104ZM839.502,390.249C839.502,307.599 772.401,240.498 689.751,240.498L390.249,240.498C307.599,240.498 240.498,307.599 240.498,390.249L240.498,689.751C240.498,772.401 307.599,839.502 390.249,839.502L689.751,839.502C772.401,839.502 839.502,772.401 839.502,689.751L839.502,390.249ZM540,353.942C642.688,353.942 726.058,437.312 726.058,540C726.058,642.688 642.688,726.058 540,726.058C437.312,726.058 353.942,642.688 353.942,540C353.942,437.312 437.312,353.942 540,353.942ZM540,417.281C607.731,417.281 662.719,472.269 662.719,540C662.719,607.731 607.731,662.719 540,662.719C472.269,662.719 417.281,607.731 417.281,540C417.281,472.269 472.269,417.281 540,417.281ZM733.589,298.574C758.654,298.574 779.003,318.923 779.003,343.988C779.003,369.052 758.654,389.401 733.589,389.401C708.525,389.401 688.176,369.052 688.176,343.988C688.176,318.923 708.525,298.574 733.589,298.574Z" style="fill:rgb(6,11,31);"/>
    </g>
</svg>
