<?xml version="1.0" encoding="UTF-8" standalone="no"?>
<!DOCTYPE svg PUBLIC "-//W3C//DTD SVG 1.1//EN" "http://www.w3.org/Graphics/SVG/1.1/DTD/svg11.dtd">
<svg width="100%" height="100%" viewBox="0 0 541 541" version="1.1" xmlns="http://www.w3.org/2000/svg" xmlns:xlink="http://www.w3.org/1999/xlink" xml:space="preserve" xmlns:serif="http://www.serif.com/" style="fill-rule:evenodd;clip-rule:evenodd;stroke-linejoin:round;stroke-miterlimit:2;">
    <g transform="matrix(1,0,0,1,0,0.0174925)">
        <g transform="matrix(1.44566,0,0,1.44566,0,0)">
            <g transform="matrix(0.691724,0,0,0.691724,0,0)">
                <rect x="0" y="0" width="540.1" height="540.1" style="fill:none;"/>
            </g>
        </g>
        <g transform="matrix(1.44566,0,0,1.44566,0,0)">
            <g transform="matrix(1.47386,0,0,1.47386,-3967.61,-111.06)">
                <path d="M2731.85,229.749C2731.93,229.501 2732.02,229.254 2732.12,229.01L2745.92,195.6C2747.71,191.264 2752.68,189.198 2757.02,190.989C2761.35,192.78 2763.42,197.754 2761.63,202.09L2748.89,232.934L2789.66,311.845L2837.57,311.845C2842.26,311.845 2846.07,315.654 2846.07,320.345C2846.07,325.036 2842.26,328.845 2837.57,328.845L2787.71,328.845C2787.42,328.845 2786.29,328.83 2785.46,328.802C2785.17,328.83 2784.87,328.845 2784.58,328.845C2780.61,328.845 2777.24,326.236 2776.11,322.641L2732.54,238.329C2731.61,236.922 2731.06,235.233 2731.06,233.417L2731.06,233.412C2731.06,233.3 2731.06,233.189 2731.07,233.078L2731.07,233.041C2731.12,231.871 2731.39,230.759 2731.85,229.749ZM2904.91,238.329L2870.02,305.85C2867.87,310.018 2862.74,311.653 2858.57,309.5C2854.4,307.346 2852.76,302.214 2854.92,298.046L2888.56,232.934L2875.82,202.09C2874.03,197.754 2876.1,192.78 2880.43,190.989C2884.77,189.198 2889.74,191.264 2891.54,195.6L2905.34,229.01C2905.44,229.254 2905.53,229.501 2905.6,229.749C2906.06,230.759 2906.34,231.871 2906.39,233.041L2906.39,233.417C2906.39,235.233 2905.85,236.922 2904.91,238.329ZM2798.97,284.692L2840.26,284.692C2844.95,284.692 2848.76,280.883 2848.76,276.192C2848.76,271.501 2844.95,267.692 2840.26,267.692L2798.97,267.692C2794.28,267.692 2790.47,271.501 2790.47,276.192C2790.47,280.883 2794.28,284.692 2798.97,284.692ZM2798.97,253.947L2840.26,253.947C2844.95,253.947 2848.76,250.138 2848.76,245.447C2848.76,240.755 2844.95,236.947 2840.26,236.947L2798.97,236.947C2794.28,236.947 2790.47,240.755 2790.47,245.447C2790.47,250.138 2794.28,253.947 2798.97,253.947ZM2798.97,223.309L2840.26,223.309C2844.95,223.309 2848.76,219.5 2848.76,214.809C2848.76,210.118 2844.95,206.309 2840.26,206.309L2798.97,206.309C2794.28,206.309 2790.47,210.118 2790.47,214.809C2790.47,219.5 2794.28,223.309 2798.97,223.309ZM2774.44,171.813L2796.78,119.731C2798.62,115.42 2796.63,110.418 2792.32,108.569C2788,106.72 2783,108.719 2781.15,113.03L2758.81,165.112C2756.96,169.423 2758.96,174.425 2763.28,176.274C2767.59,178.123 2772.59,176.124 2774.44,171.813ZM2826.3,128.685L2844.87,159.962L2833.23,159.962C2828.53,159.962 2824.73,163.771 2824.73,168.462C2824.73,173.154 2828.53,176.962 2833.23,176.962L2857.27,176.962C2857.7,176.962 2858.13,176.93 2858.54,176.867C2860.41,177.149 2862.39,176.811 2864.14,175.771C2868.17,173.376 2869.5,168.156 2867.11,164.123L2838.92,116.651C2836.24,111.949 2831.21,109.075 2825.8,109.142C2820.38,109.21 2815.43,112.21 2812.87,116.977C2812.72,117.24 2812.65,117.383 2812.65,117.383L2792.17,165.112C2790.33,169.423 2792.32,174.425 2796.64,176.274C2800.95,178.123 2805.95,176.124 2807.8,171.813L2826.3,128.685ZM2812.04,75.484C2778.25,77.567 2750.7,102.826 2745.09,135.536C2744.29,140.16 2747.4,144.558 2752.03,145.352C2756.65,146.145 2761.05,143.036 2761.84,138.412C2766.25,112.73 2788.33,93.056 2815.1,92.364C2847.75,93.175 2874,119.933 2874,152.774C2874,157.466 2877.81,161.274 2882.5,161.274C2887.2,161.274 2891,157.466 2891,152.774C2891,111.531 2858.69,77.776 2818.02,75.471C2817.55,75.388 2817.05,75.345 2816.56,75.345C2816.07,75.345 2815.58,75.35 2815.09,75.36C2814.58,75.35 2814.08,75.345 2813.58,75.345C2813.05,75.345 2812.54,75.393 2812.04,75.484Z" style="fill:white;"/>
            </g>
        </g>
    </g>
</svg>
