<?xml version="1.0" encoding="UTF-8" standalone="no"?>
<!DOCTYPE svg PUBLIC "-//W3C//DTD SVG 1.1//EN" "http://www.w3.org/Graphics/SVG/1.1/DTD/svg11.dtd">
<svg width="100%" height="100%" viewBox="0 0 512 512" version="1.1" xmlns="http://www.w3.org/2000/svg" xmlns:xlink="http://www.w3.org/1999/xlink" xml:space="preserve" xmlns:serif="http://www.serif.com/" style="fill-rule:evenodd;clip-rule:evenodd;stroke-linejoin:round;stroke-miterlimit:2;">
    <path d="M512,176.805C512,121.181 466.84,76.021 411.217,76.021L100.783,76.021C45.16,76.021 0,121.181 0,176.805L0,335.179C0,390.802 45.16,435.962 100.783,435.962L411.217,435.962C466.84,435.962 512,390.802 512,335.179L512,176.805ZM327.197,237.142C333.464,240.276 337.423,246.682 337.423,253.689C337.423,260.696 333.464,267.102 327.197,270.236C296.355,285.657 250.94,308.364 222.319,322.675C216.584,325.542 209.774,325.235 204.32,321.865C198.866,318.494 195.546,312.539 195.546,306.128L195.546,201.25C195.546,194.839 198.866,188.884 204.32,185.513C209.774,182.142 216.584,181.836 222.319,184.703C250.94,199.014 296.355,221.721 327.197,237.142Z" style="fill:rgb(6,11,31);"/>
</svg>
