<?xml version="1.0" encoding="UTF-8" standalone="no"?>
<!DOCTYPE svg PUBLIC "-//W3C//DTD SVG 1.1//EN" "http://www.w3.org/Graphics/SVG/1.1/DTD/svg11.dtd">
<svg width="100%" height="100%" viewBox="0 0 403 403" version="1.1" xmlns="http://www.w3.org/2000/svg" xmlns:xlink="http://www.w3.org/1999/xlink" xml:space="preserve" xmlns:serif="http://www.serif.com/" style="fill-rule:evenodd;clip-rule:evenodd;stroke-linejoin:round;stroke-miterlimit:2;">
    <g transform="matrix(1,0,0,1,0,-25.4437)">
        <path d="M98.315,334.048L303.922,334.048C315.787,334.048 325.419,324.415 325.419,312.551C325.419,300.686 315.787,291.054 303.922,291.054L98.315,291.054C86.45,291.054 76.818,300.686 76.818,312.551C76.818,324.415 86.45,334.048 98.315,334.048ZM98.315,248.059L303.922,248.059C315.787,248.059 325.419,238.427 325.419,226.562C325.419,214.698 315.787,205.065 303.922,205.065L98.315,205.065C86.45,205.065 76.818,214.698 76.818,226.562C76.818,238.427 86.45,248.059 98.315,248.059ZM98.315,162.071L303.922,162.071C315.787,162.071 325.419,152.439 325.419,140.574C325.419,128.71 315.787,119.077 303.922,119.077L98.315,119.077C86.45,119.077 76.818,128.71 76.818,140.574C76.818,152.439 86.45,162.071 98.315,162.071Z" style="fill:rgb(224,224,227);"/>
    </g>
</svg>
