<?xml version="1.0" encoding="UTF-8" standalone="no"?>
<!DOCTYPE svg PUBLIC "-//W3C//DTD SVG 1.1//EN" "http://www.w3.org/Graphics/SVG/1.1/DTD/svg11.dtd">
<svg width="100%" height="100%" viewBox="0 0 1081 1080" version="1.1" xmlns="http://www.w3.org/2000/svg" xmlns:xlink="http://www.w3.org/1999/xlink" xml:space="preserve" xmlns:serif="http://www.serif.com/" style="fill-rule:evenodd;clip-rule:evenodd;stroke-linejoin:round;stroke-miterlimit:2;">
    <g transform="matrix(1.1366,0,0,1.1366,-73.762,-108.988)">
        <path d="M106.566,261.443L106.297,261.444L106.189,261.445L106.148,261.445L106.114,261.446C95.963,261.553 86.682,265.291 79.51,271.422L79.453,271.471L79.405,271.512L79.298,271.604L79.215,271.677L79.15,271.733L79.002,271.864L78.922,271.933L78.897,271.956C76.774,273.84 74.838,275.946 73.128,278.246L73.028,278.381L72.933,278.51L72.924,278.523C68.571,284.47 65.757,291.612 65.066,299.365L65.062,299.401L65.043,299.627L65.042,299.642C64.933,300.942 64.886,302.24 64.9,303.534L64.9,838.875C64.9,861.887 83.554,880.541 106.566,880.541L973.434,880.541C996.446,880.541 1015.1,861.887 1015.1,838.875L1015.1,303.534C1015.11,302.239 1015.07,300.941 1014.96,299.642L1014.94,299.401L1014.93,299.365C1014.24,291.61 1011.43,284.468 1007.08,278.523L1006.97,278.381L1006.87,278.246C1005.16,275.946 1003.23,273.84 1001.1,271.956L1001.08,271.933L1001,271.864L1000.85,271.733L1000.78,271.677L1000.7,271.604L1000.6,271.512L1000.55,271.471L1000.49,271.422C993.316,265.292 984.037,261.554 973.886,261.446L973.852,261.445L973.811,261.445C973.687,261.444 973.56,261.443 973.434,261.443L106.566,261.443ZM148.233,387.376L148.233,797.208L931.767,797.208L931.767,387.376L565.295,667.348C550.361,678.756 529.639,678.756 514.705,667.348L148.233,387.376ZM229.741,344.776L850.259,344.776L540,581.803L229.741,344.776Z" style="fill:rgb(6,11,31);"/>
    </g>
</svg>
