<?xml version="1.0" encoding="UTF-8" standalone="no"?>
<!DOCTYPE svg PUBLIC "-//W3C//DTD SVG 1.1//EN" "http://www.w3.org/Graphics/SVG/1.1/DTD/svg11.dtd">
<svg width="100%" height="100%" viewBox="0 0 3000 3000" version="1.1" xmlns="http://www.w3.org/2000/svg" xmlns:xlink="http://www.w3.org/1999/xlink" xml:space="preserve" xmlns:serif="http://www.serif.com/" style="fill-rule:evenodd;clip-rule:evenodd;stroke-linejoin:round;stroke-miterlimit:2;">
    <g transform="matrix(1.02501,0,0,1.02501,-37.5166,-37.1787)">
        <path d="M1500.33,23.743C2307.83,23.743 2963.41,679.328 2963.41,1486.82C2963.41,2294.32 2307.83,2949.91 1500.33,2949.91C692.838,2949.91 37.253,2294.32 37.253,1486.82C37.253,679.328 692.838,23.743 1500.33,23.743ZM2229.16,1086.22L2229.16,1355.52C2082.88,1358.89 1940.25,1312.84 1808.65,1213.38L1814.01,1843.03C1801.63,1917.91 1783.93,1984.31 1756.93,2040.13C1645.78,2269.97 1424.34,2344.21 1235.2,2326.22C1066.87,2310.21 933.841,2214.4 865.928,2111.89C811.275,2029.39 780.351,1944.4 775.037,1852.58C758.408,1565.26 986.039,1264.04 1372.46,1307.65L1368.36,1583.52C1084.21,1509.18 976.953,1825.98 1096.22,1967.6C1238.32,2136.33 1507.68,2069.75 1540.8,1831.99L1538.96,672.001L1808.5,672.914C1813.88,806.393 1865.78,905.926 1944.7,976.921C2018.24,1043.08 2109.49,1082.86 2229.16,1086.22Z" style="fill:rgb(6,11,31);"/>
    </g>
</svg>
